<?xml version="1.0" encoding="UTF-8"?>
<!DOCTYPE svg PUBLIC "-//W3C//DTD SVG 1.1//EN" "http://www.w3.org/Graphics/SVG/1.1/DTD/svg11.dtd">
<!-- Creator: CorelDRAW (OEM Sürümü) -->
<svg xmlns="http://www.w3.org/2000/svg" xml:space="preserve" width="134px" height="43px" version="1.1" style="shape-rendering:geometricPrecision; text-rendering:geometricPrecision; image-rendering:optimizeQuality; fill-rule:evenodd; clip-rule:evenodd"
viewBox="0 0 66870.69 21702.46"
 xmlns:xlink="http://www.w3.org/1999/xlink"
 xmlns:xodm="http://www.corel.com/coreldraw/odm/2003">
 <defs>
  <style type="text/css">
   <![CDATA[
    .fil1 {fill:#FEFEFE}
    .fil0 {fill:#FEFEFE;fill-rule:nonzero}
   ]]>
  </style>
 </defs>
 <g id="Katman_x0020_1">
  <metadata id="CorelCorpID_0Corel-Layer"/>
  <g id="_1520962485408">
   <g id="_2301880134432">
    <g>
     <path class="fil0" d="M24971.45 16984.71l1315.99 -1231.08 0 721.67 1103.73 0 0 594.32 -1103.73 0 0 1698.04c0,382.07 169.8,594.32 509.41,594.32 212.25,0 466.96,-84.91 764.12,-254.71l0 636.77c-254.71,169.8 -551.87,254.71 -849.03,254.71 -339.61,0 -594.32,-84.91 -806.57,-297.16 -84.91,-42.45 -127.36,-127.36 -169.8,-169.8 -42.45,-84.91 -84.91,-169.8 -84.91,-297.16 -42.45,-84.91 -42.45,-297.16 -42.45,-636.77l0 -1528.24 -636.76 0 0 -84.91zm5433.75 1273.53l-2419.71 0c0,297.16 127.36,594.32 339.61,764.12 212.25,212.25 466.96,297.16 764.12,297.16 466.96,0 891.48,-127.36 1273.53,-382.07l0 636.77c-212.25,169.8 -424.51,254.71 -636.76,297.16 -212.25,84.91 -424.51,127.36 -721.67,127.36 -382.05,0 -679.21,-84.91 -933.92,-254.71 -212.25,-169.8 -424.51,-382.07 -551.87,-636.77 -169.8,-297.16 -212.25,-594.32 -212.25,-933.92 0,-551.87 127.36,-976.37 424.51,-1315.99 297.16,-297.16 679.21,-466.96 1188.63,-466.96 466.96,0 806.57,127.36 1103.73,466.96 254.71,339.61 382.07,764.12 382.07,1315.99l0 84.91 -0.03 -0.02zm-2419.72 -424.51l1740.49 0c0,-297.16 -84.91,-509.41 -212.25,-636.77 -169.8,-169.8 -339.61,-212.25 -594.32,-212.25 -254.71,0 -466.96,42.45 -594.32,212.25 -169.8,127.36 -297.16,339.61 -339.61,636.77l0.02 0zm4839.43 -1358.44l806.57 0 -1443.33 1655.6 1782.93 1782.95 -933.9 0 -1740.49 -1740.49 1528.24 -1698.04 -0.02 -0.02zm-2249.91 -1825.4l679.21 0 0 5263.93 -679.21 0 0 -5263.93zm3820.59 1825.4l0 424.51c297.16,-339.61 636.77,-509.41 1018.83,-509.41 212.25,0 424.51,42.45 594.32,169.8 212.25,84.91 339.61,254.71 424.51,466.96 127.36,169.8 169.8,466.96 169.8,891.48l0 1995.2 -679.21 0 0 -1952.75c0,-382.07 -84.91,-636.77 -169.8,-764.12 -127.36,-169.8 -297.16,-254.71 -551.87,-254.71 -339.61,0 -594.32,169.8 -806.57,509.41l0 2462.16 -721.67 0 0 -3438.55 721.67 0 0 0.02zm4245.12 -42.45c509.41,0 933.92,169.8 1315.99,509.41 339.61,339.61 509.41,764.12 509.41,1315.99 0,466.96 -169.8,891.48 -551.87,1231.08 -339.61,339.61 -764.12,509.41 -1315.99,509.41 -509.41,0 -976.37,-169.8 -1315.99,-509.41 -339.61,-339.61 -509.41,-764.12 -509.41,-1273.53 0,-509.41 169.8,-933.92 509.41,-1273.53 382.07,-339.61 806.57,-509.41 1358.44,-509.41zm-42.45 636.77c-339.61,0 -594.32,84.91 -806.57,339.61 -212.25,212.25 -339.61,466.96 -339.61,806.57 0,339.61 127.36,594.32 339.61,806.57 212.25,212.25 466.96,339.61 806.57,339.61 339.61,0 636.77,-127.36 849.03,-339.61 212.25,-212.25 339.61,-466.96 339.61,-806.57 0,-339.61 -127.36,-594.32 -339.61,-806.57 -254.71,-254.71 -509.41,-339.61 -849.03,-339.61zm2037.65 -2419.72l721.67 0 0 5263.93 -721.67 0 0 -5263.93zm2759.32 1782.95c551.87,0 976.37,169.8 1315.99,509.41 382.07,339.61 551.87,764.12 551.87,1315.99 0,466.96 -212.25,891.48 -551.87,1231.08 -339.61,339.61 -806.57,509.41 -1315.99,509.41 -551.87,0 -976.37,-169.8 -1315.99,-509.41 -339.61,-339.61 -551.87,-764.12 -551.87,-1273.53 0,-509.41 212.25,-933.92 551.87,-1273.53 339.61,-339.61 806.57,-509.41 1315.99,-509.41zm-42.45 636.77c-297.16,0 -594.32,84.91 -806.57,339.61 -212.25,212.25 -297.16,466.96 -297.16,806.57 0,339.61 84.91,594.32 297.16,806.57 254.71,212.25 509.41,339.61 849.03,339.61 339.61,0 636.77,-127.36 849.03,-339.61 212.25,-212.25 297.16,-466.96 297.16,-806.57 0,-339.61 -84.91,-594.32 -339.61,-806.57 -212.25,-254.71 -509.41,-339.61 -849.03,-339.61zm2377.27 -2080.11c127.36,0 212.25,42.45 297.16,127.36 84.91,84.91 127.36,169.8 127.36,297.16 0,84.91 -42.45,212.25 -127.36,254.71 -84.91,84.91 -169.8,127.36 -297.16,127.36 -84.91,0 -169.8,-42.45 -254.71,-127.36 -84.91,-84.91 -127.36,-169.8 -127.36,-254.71 0,-127.36 42.45,-212.25 127.36,-297.16 84.91,-84.91 169.8,-127.36 254.71,-127.36zm-297.16 1485.79l679.21 0 0 3947.96c0,594.32 -254.71,1018.83 -679.21,1273.53l-551.87 -509.41c169.8,-42.45 297.16,-127.36 382.07,-297.16 127.36,-127.36 169.8,-297.16 169.8,-466.96l0 -3947.96zm1443.33 -1485.79c127.36,0 212.25,42.45 297.16,127.36 84.91,84.91 127.36,169.8 127.36,297.16 0,84.91 -42.45,169.8 -127.36,254.71 -84.91,84.91 -169.8,127.36 -297.16,127.36 -84.91,0 -212.25,-42.45 -254.71,-127.36 -84.91,-84.91 -127.36,-169.8 -127.36,-254.71 0,-127.36 42.45,-212.25 127.36,-297.16 42.45,-84.91 169.8,-127.36 254.71,-127.36zm-339.6 1485.79l679.21 0 0 3438.55 -679.21 0 0 -3438.55z"/>
     <path class="fil0" d="M20174.48 4.28l13287.21 0 0 1782.95 -6452.58 0 0 12310.82 -2037.65 0 0 -12310.82 -4796.97 0 0 -1782.95zm9848.66 4839.43l0 2122.56 127.36 -169.8c891.48,-1400.9 1740.49,-1952.75 2631.98,-1952.75 721.67,0 1443.32,169.8 2165,849.03l-933.92 1613.15c-636.74,-594.32 -1231.06,-891.48 -1782.93,-891.48 -594.32,0 -1103.73,297.16 -1528.24,849.03 -466.96,551.87 -679.21,1231.08 -679.21,1995.2l0 4839.41 -1825.4 0 0 -9254.34 1825.4 0 -0.03 -0.02zm9424.13 9254.32l0 -1146.19c-424.51,382.07 -849.03,721.67 -1358.44,976.37 -509.41,212.25 -976.37,339.61 -1485.79,339.61 -594.32,0 -1146.17,-127.36 -1613.15,-424.51 -509.41,-297.16 -891.47,-679.21 -1146.17,-1188.63 -254.69,-509.41 -382.04,-1358.44 -382.04,-2504.6l0 -5306.39 1867.84 0 0 5306.39c0,933.92 127.36,1655.59 424.51,2037.64 254.71,382.07 764.12,551.87 1443.33,551.87 891.48,0 1613.15,-424.51 2249.91,-1273.53l0 -6622.36 1825.4 0 0 9254.34 -1825.4 0 0 -0.02zm1867.85 -9254.32l0 1188.63c806.57,-933.92 1740.49,-1188.63 2801.77,-1188.63 551.87,0 1103.73,-42.45 1570.69,254.71 509.41,297.16 891.48,721.67 1146.19,1231.08 254.71,509.41 382.07,1358.44 382.07,2462.16l0 5306.37 -1825.4 0 0 -5263.92c0,-976.37 -127.36,-1613.15 -424.51,-2037.65 -297.16,-424.51 -764.12,-594.32 -1443.33,-594.32 -891.47,0 -1613.15,424.51 -2207.45,1273.53l0 6622.36 -1867.85 0 0 -9254.34 1867.85 0 -0.03 0.02zm10485.43 9424.13l-42.45 169.8c382.07,84.91 636.77,254.71 849.03,509.41 212.25,254.71 297.16,551.87 297.16,849.03 0,509.41 -169.8,933.92 -594.32,1315.99 -424.51,339.61 -1061.28,509.41 -1952.75,509.41 -254.71,0 -466.96,0 -679.21,-42.45l0 -1146.19c339.61,42.45 551.87,42.45 636.77,42.45 382.07,0 679.21,-42.45 891.48,-212.25 127.36,-84.91 212.25,-212.25 212.25,-339.61 0,-169.8 -84.91,-297.16 -212.25,-382.07 -127.36,-127.36 -382.05,-169.8 -764.12,-169.8 -84.91,0 -127.36,0 -212.25,0l424.51 -1231.08c-849.03,-169.8 -1655.59,-636.77 -2377.27,-1358.44 -721.67,-721.67 -1103.73,-1825.39 -1103.73,-3268.72 0,-1443.33 424.51,-2631.98 1273.53,-3523.44 849.03,-891.48 1952.75,-1146.19 3311.19,-1146.19 1231.08,0 1485.79,-84.91 2674.43,466.96l0 1952.75c-933.92,-594.32 -1782.95,-891.48 -2589.52,-891.48 -806.57,0 -1485.79,297.16 -2037.65,849.03 -509.41,594.32 -764.12,1358.44 -764.12,2249.91 0,933.92 254.71,1698.04 849.03,2249.89 594.32,551.87 1358.44,849.03 2334.81,849.03 679.21,0 1485.79,-212.25 2419.72,-636.77l0 1825.4c-933.92,339.61 -1825.4,509.41 -2716.87,509.41l-127.36 0 -0.03 0.03z"/>
     <path class="fil0" d="M54559.87 8027.54c0,-976.37 382.07,-1740.49 1103.73,-2334.81 721.65,-551.87 1698.02,-849.03 2929.12,-849.03l3820.6 0 0 1443.33 -1867.85 0c382.07,339.61 636.77,679.21 764.12,976.37 127.36,297.16 212.25,679.21 212.25,1061.28 0,466.96 -127.36,933.92 -424.51,1400.9 -254.71,466.96 -636.76,849.03 -1061.28,1103.73 -424.51,212.25 -1146.17,424.49 -2122.56,594.31 -679.21,84.91 -1018.83,339.61 -1018.83,721.67 0,212.25 127.36,382.07 382.07,509.41 254.71,127.36 721.67,297.16 1400.9,424.51 1146.19,254.71 1867.85,466.96 2165.02,594.32 339.61,127.36 636.77,339.61 891.48,594.32 466.96,466.96 679.21,1018.83 679.21,1698.04 0,849.03 -382.05,1570.69 -1188.63,2080.11 -764.12,551.87 -1825.4,806.57 -3141.39,806.57 -1315.99,0 -2377.25,-297.16 -3141.37,-806.57 -806.57,-509.41 -1188.63,-1231.08 -1188.63,-2122.56 0,-1273.53 764.12,-2080.11 2334.8,-2419.72 -636.74,-424.51 -933.9,-806.57 -933.9,-1188.63 0,-297.16 127.36,-551.87 382.07,-806.57 254.71,-254.71 636.76,-424.49 1061.26,-551.85 -1358.43,-594.32 -2037.64,-1570.69 -2037.64,-2929.14l-0.05 0.02zm3438.53 -1613.15c-466.96,0 -891.47,169.8 -1273.53,509.41 -339.61,339.61 -509.41,764.12 -509.41,1231.08 0,466.96 169.8,849.03 509.41,1188.63 339.61,297.16 806.57,466.96 1315.99,466.96 509.41,0 42.45,-169.8 382.07,-509.41 339.61,-297.16 509.41,-721.67 509.41,-1188.63 0,-466.96 -169.8,-891.48 -509.41,-1188.63 -382.05,-339.61 127.36,-509.41 -424.51,-509.41l-0.02 0zm-424.52 8150.6c-594.32,0 -1103.73,127.36 -1528.22,382.07 -382.05,254.71 -551.87,594.32 -551.87,1018.83 0,933.92 849.01,1400.9 2547.05,1400.9 806.57,0 1443.33,-127.36 1910.31,-339.61 424.51,-254.71 679.21,-594.32 679.21,-1018.83 0,-424.51 -297.16,-764.12 -849.03,-1061.28 -594.32,-254.71 -1315.99,-382.07 -2207.45,-382.07zm5518.66 -13626.79c339.61,0 594.32,84.91 806.57,297.16 212.25,212.25 297.16,466.96 297.16,764.12 0,297.16 -84.91,551.87 -297.16,764.12 -212.25,212.25 -466.96,339.61 -806.57,339.61 -254.71,0 -509.41,-127.36 -721.67,-339.61 -212.25,-212.25 -339.61,-466.96 -339.61,-764.12 0,-254.71 127.36,-509.41 339.61,-721.67 212.25,-254.71 466.96,-339.61 721.67,-339.61zm-891.48 3905.51l1825.4 0 0 9254.34 -1825.4 0 0 -9254.34zm2844.23 -4839.43l1825.4 0 0 14093.76 -1825.4 0 0 -14093.76z"/>
    </g>
    <g>
     <path class="fil1" d="M11344.65 14564.99c-1485.77,-3141.39 -2971.56,-6240.29 -4457.34,-9381.68 -3311.19,-4712.07 -9126.99,594.32 -5985.6,4584.72 2886.68,2292.34 5306.39,4287.55 8193.07,6537.45 1485.79,-254.71 2080.11,-976.37 2249.89,-1740.49l-0.02 0z"/>
     <path class="fil1" d="M13764.35 13800.87c-254.71,-2631.96 -1146.17,-7768.53 -1231.08,-9721.29 -466.96,-6579.92 -7810.99,-4499.81 -5051.67,1273.53 1443.33,2886.68 2504.61,6028.04 4117.75,9126.97 891.48,212.25 1995.2,-169.8 2165.02,-679.21l-0.02 0z"/>
     <path class="fil1" d="M15844.46 14055.58c594.32,-2547.07 1570.69,-6155.4 2122.56,-8023.24 466.96,-4414.92 -4372.47,-6325.22 -4881.88,-3608.35 -127.36,1018.83 0,2547.07 212.25,4330.02 254.71,2165.02 594.32,4584.71 764.12,6961.97 509.41,636.77 1400.9,721.67 1782.95,339.61l0 -0.02z"/>
     <path class="fil1" d="M17500.06 15498.93l3014.03 -4287.55c1315.99,-2334.81 -764.12,-7768.55 -1910.29,-4627.18 -84.91,169.8 -2080.11,6282.75 -2462.16,7513.83 0,1231.08 1018.83,1613.15 1358.44,1400.9l-0.02 0z"/>
     <path class="fil1" d="M11556.9 14692.35c976.37,127.36 1995.2,-42.45 2377.27,-806.57 594.32,764.12 1613.15,764.12 1995.2,297.16 0,976.37 466.96,1528.24 1358.44,1655.6 -424.51,636.77 -1146.17,1400.9 -1528.24,169.8 -424.51,2080.11 -806.57,3438.55 -1231.08,5518.64 -424.51,212.25 -764.12,254.71 -1231.08,0 -212.25,-1910.31 -466.96,-3141.39 -679.21,-5094.14 -764.12,1400.9 -1910.28,1315.99 -3311.17,84.91 382.07,-169.8 1867.85,-254.71 2249.89,-1825.4l-0.02 0z"/>
    </g>
   </g>
  </g>
 </g>
</svg>
