<?xml version="1.0" encoding="UTF-8"?>
<!DOCTYPE svg PUBLIC "-//W3C//DTD SVG 1.1//EN" "http://www.w3.org/Graphics/SVG/1.1/DTD/svg11.dtd">
<!-- Creator: CorelDRAW (OEM Sürümü) -->
<svg xmlns="http://www.w3.org/2000/svg" xml:space="preserve" width="96.251mm" height="99.5076mm" version="1.1" style="shape-rendering:geometricPrecision; text-rendering:geometricPrecision; image-rendering:optimizeQuality; fill-rule:evenodd; clip-rule:evenodd"
viewBox="0 0 6219.32 6429.74"
 xmlns:xlink="http://www.w3.org/1999/xlink"
 xmlns:xodm="http://www.corel.com/coreldraw/odm/2003">
 <defs>
  <style type="text/css">
   <![CDATA[
    .fil2 {fill:#0B9301}
    .fil1 {fill:#F67E11}
    .fil0 {fill:#FE4800}
    .fil5 {fill:black;fill-rule:nonzero}
    .fil3 {fill:#2B2A29;fill-rule:nonzero}
    .fil4 {fill:#434242;fill-rule:nonzero}
   ]]>
  </style>
 </defs>
 <g id="Katman_x0020_1">
  <metadata id="CorelCorpID_0Corel-Layer"/>
  <g id="_2527715180160">
   <g>
    <path class="fil0" d="M792.4 4938.52c58.06,-424.79 27.92,-588.34 201.36,-980.99 121.19,-274.35 272.81,-485.94 472.77,-689.33 926.81,-942.72 2465.89,-898.62 3300.33,5.86 449.38,487.09 584.51,810.95 660.35,1665.12l788.56 -0.03c52.28,-933.08 -483.63,-1779.58 -908.86,-2205.35 -1213.11,-1214.65 -3246.08,-1187.4 -4403.25,16.96 -505.02,525.61 -966.91,1408.04 -896.52,2187.46l785.27 0.3z"/>
    <path class="fil1" d="M5238.49 4738.86c54.96,-180.32 -27.55,-453.62 -95.25,-609.54 -93.26,-214.78 -214.52,-312.44 -499.61,-214.04 -346.13,119.47 -686.19,369.38 -932.16,549.85 -123.07,90.29 -429.46,265.23 -308.82,376.05 65.44,60.11 516.94,101.98 639,114.32 364.51,36.86 1090.91,130.97 1196.86,-216.64z"/>
    <path class="fil1" d="M3241.41 4664.03c157.42,18.35 369.57,-237.79 449.24,-311.98 137.41,-127.96 250.41,-240.62 366.48,-385.61 286.76,-358.22 577.85,-656.79 136.91,-940.87 -506.3,-326.19 -753.13,-242.65 -887.48,281.57 -63.11,246.22 -174.48,1166.69 -65.15,1356.9z"/>
    <path class="fil1" d="M3040.85 4660.79c102.6,-196.99 -2.11,-1097.17 -63.73,-1349.5 -137.7,-563.83 -411.65,-587.12 -888.26,-286.8 -315.38,198.73 -286.54,401.86 -27.67,744.63 222.78,295 350.62,370.69 544.28,593.91 63.76,73.5 288.89,325.24 435.39,297.77z"/>
    <path class="fil1" d="M1029.29 4738.86c124.26,493.88 1784.66,138.84 1827.21,99.67 91.76,-84.48 -36.98,-175.63 -83.13,-209.21 -314.34,-228.77 -776.34,-589.29 -1137.5,-709.54 -291.31,-96.99 -410.84,-29.61 -503.69,199.35 -65.04,160.4 -151.04,428.38 -102.89,619.73z"/>
   </g>
   <g>
    <path class="fil2" d="M1722.38 381.74l138.27 394.16c38.68,139.47 73.82,282.49 130.17,415.45 39.81,93.91 120.11,294.18 213.94,387.91 147.92,147.75 342.27,87.63 417.5,-67.02 198.59,-408.23 -529.96,-1252.64 -1013.13,-1512.24 -189.16,383.31 -245.73,645.25 -246.15,1016.17 -1.19,1070.8 643.8,982.92 659.69,659.76 14.58,-296.45 -329.8,-1057.56 -300.29,-1294.19z"/>
    <path class="fil2" d="M340.32 1645.01c325.27,31.07 909.43,574.92 1054.44,308.64 232.88,-427.65 -851.93,-679.78 -1352.97,-453.67 28.42,236.02 490.36,883.02 868.96,954.39 248.21,46.78 379.57,-198.84 126.19,-403.15 -170.88,-137.77 -594.57,-290.48 -696.61,-406.21z"/>
    <path class="fil2" d="M3597.14 464.9c-450,112.86 -1103.88,878.88 -675.41,1023.7 234.9,79.39 370.64,-577.95 605.52,-781.74 -89.62,230.45 -248.34,436.15 -313.96,675.45 -77.59,282.95 168.02,381.98 314.25,214.74 315.04,-360.34 162.42,-989.82 164.6,-1146.6l-94.99 14.44z"/>
   </g>
  </g>
  <g id="_2527715184720">
   <path class="fil3" d="M3536.05 5138.16l376.11 0 0 50.47 -182.65 0 0 348.48 -57.68 0 0 -348.48 -135.79 0 0 -50.47zm278.78 136.99l0 60.09 3.61 -4.81c25.23,-39.65 49.27,-55.27 74.5,-55.27 20.42,0 40.86,4.8 61.28,24.03l-26.43 45.66c-18.02,-16.83 -34.85,-25.24 -50.47,-25.24 -16.82,0 -31.24,8.41 -43.25,24.04 -13.22,15.62 -19.23,34.85 -19.23,56.47l0 136.99 -51.67 0 0 -261.96 51.67 0 0 -0.01zm266.77 261.96l0 -32.45c-12.02,10.82 -24.03,20.43 -38.45,27.64 -14.42,6.01 -27.64,9.61 -42.06,9.61 -16.82,0 -32.44,-3.6 -45.66,-12.01 -14.42,-8.41 -25.23,-19.23 -32.44,-33.65 -7.21,-14.42 -10.82,-38.45 -10.82,-70.9l0 -150.21 52.87 0 0 150.21c0,26.43 3.61,46.86 12.02,57.68 7.21,10.82 21.63,15.62 40.86,15.62 25.23,0 45.66,-12.02 63.69,-36.05l0 -187.46 51.67 0 0 261.96 -51.67 0 0 0zm52.87 -261.96l0 33.65c22.83,-26.44 49.26,-33.65 79.31,-33.65 15.62,0 31.24,-1.2 44.46,7.21 14.42,8.41 25.24,20.43 32.45,34.85 7.21,14.42 10.81,38.45 10.81,69.7l0 150.21 -51.67 0 0 -149c0,-27.64 -3.61,-45.66 -12.02,-57.68 -8.41,-12.02 -21.63,-16.83 -40.86,-16.83 -25.23,0 -45.66,12.02 -62.48,36.05l0 187.46 -52.87 0 0 -261.96 52.87 0 0 0zm296.81 266.77l-1.2 4.8c10.82,2.4 18.03,7.21 24.03,14.42 6.01,7.21 8.41,15.62 8.41,24.03 0,14.42 -4.81,26.44 -16.82,37.25 -12.02,9.61 -30.05,14.42 -55.28,14.42 -7.21,0 -13.22,0 -19.22,-1.2l0 -32.44c9.61,1.2 15.62,1.2 18.02,1.2 10.82,0 19.23,-1.2 25.24,-6.01 3.61,-2.4 6,-6.01 6,-9.61 0,-4.81 -2.4,-8.41 -6,-10.81 -3.61,-3.61 -10.82,-4.81 -21.63,-4.81 -2.4,0 -3.61,0 -6.01,0l12.02 -34.85c-24.03,-4.81 -46.87,-18.03 -67.29,-38.45 -20.43,-20.43 -31.25,-51.67 -31.25,-92.53 0,-40.86 12.02,-74.5 36.06,-99.73 24.03,-25.24 55.27,-32.45 93.72,-32.45 34.85,0 42.06,-2.4 75.7,13.22l0 55.28c-26.43,-16.83 -50.47,-25.24 -73.3,-25.24 -22.83,0 -42.06,8.41 -57.68,24.04 -14.42,16.82 -21.63,38.45 -21.63,63.69 0,26.43 7.21,48.07 24.04,63.69 16.82,15.62 38.45,24.04 66.09,24.04 19.22,0 42.06,-6.01 68.49,-18.03l0 51.67c-26.43,9.61 -51.67,14.42 -76.91,14.42l-3.61 0 0 0.01z"/>
   <path class="fil4" d="M4509.39 5365.27c0,-27.64 10.82,-49.27 31.24,-66.09 20.43,-15.62 48.07,-24.04 82.91,-24.04l108.15 0 0 40.86 -52.87 0c10.81,9.61 18.02,19.23 21.63,27.64 3.61,8.41 6.01,19.22 6.01,30.04 0,13.21 -3.61,26.43 -12.02,39.65 -7.21,13.21 -18.02,24.03 -30.04,31.24 -12.02,6.01 -32.44,12.02 -60.08,16.83 -19.23,2.4 -28.84,9.61 -28.84,20.42 0,6.01 3.61,10.82 10.82,14.42 7.21,3.61 20.43,8.41 39.65,12.01 32.44,7.21 52.87,13.22 61.29,16.83 9.61,3.61 18.02,9.61 25.23,16.83 13.22,13.21 19.22,28.84 19.22,48.06 0,24.04 -10.81,44.46 -33.65,58.88 -21.63,15.62 -51.67,22.83 -88.92,22.83 -37.26,0 -67.3,-8.41 -88.92,-22.83 -22.84,-14.42 -33.65,-34.85 -33.65,-60.09 0,-36.05 21.63,-58.88 66.09,-68.49 -18.02,-12.02 -26.43,-22.83 -26.43,-33.65 0,-8.41 3.61,-15.62 10.81,-22.83 7.21,-7.21 18.03,-12.02 30.05,-15.62 -38.45,-16.83 -57.68,-44.46 -57.68,-82.91l0 0zm97.34 -45.66c-13.22,0 -25.24,4.81 -36.06,14.42 -9.61,9.61 -14.42,21.63 -14.42,34.85 0,13.22 4.81,24.03 14.42,33.65 9.61,8.41 22.84,13.22 37.25,13.22 14.42,0 1.2,-4.81 10.82,-14.42 9.61,-8.41 14.42,-20.42 14.42,-33.65 0,-13.22 -4.81,-25.23 -14.42,-33.65 -10.81,-9.61 3.61,-14.42 -12.01,-14.42l0 0zm-12.02 230.72c-16.83,0 -31.24,3.61 -43.26,10.82 -10.82,7.21 -15.62,16.83 -15.62,28.84 0,26.44 24.04,39.65 72.1,39.65 22.84,0 40.86,-3.61 54.08,-9.61 12.02,-7.21 19.23,-16.83 19.23,-28.84 0,-12.01 -8.41,-21.63 -24.04,-30.04 -16.82,-7.21 -37.25,-10.82 -62.48,-10.82zm156.21 -385.73c9.61,0 16.82,2.4 22.83,8.41 6.01,6.01 8.41,13.22 8.41,21.63 0,8.41 -2.4,15.62 -8.41,21.63 -6.01,6.01 -13.21,9.61 -22.83,9.61 -7.21,0 -14.42,-3.61 -20.43,-9.61 -6.01,-6.01 -9.61,-13.22 -9.61,-21.63 0,-7.21 3.6,-14.42 9.61,-20.43 6.01,-7.21 13.22,-9.61 20.43,-9.61zm-25.24 110.55l51.67 0 0 261.96 -51.67 0 0 -261.96zm80.51 -136.99l51.67 0 0 398.95 -51.67 0 0 -398.95z"/>
  </g>
  <path class="fil5" d="M1701.04 6181.36l0 191.66c-104.26,37.72 -199.93,56.73 -286.71,56.73 -149.03,0 -268.32,-40.17 -357.55,-120.51 -89.23,-80.34 -134,-186.44 -134,-318.91 0,-129.1 45.08,-235.81 135.23,-319.83 90.15,-83.72 204.84,-125.73 344.36,-125.73 89.85,0 185.21,18.4 285.79,55.5l0 198.4c-73.59,-38.03 -145.96,-57.04 -217.1,-57.04 -79.73,0 -143.51,22.38 -191.35,67.15 -47.83,44.77 -71.76,104.56 -71.76,179.39 0,75.43 23.31,136.46 69.91,182.76 46.92,46.3 108.25,69.3 184.3,69.3 56.11,0 135.84,-19.62 238.88,-58.88zm99.06 -896.01c0,-40.79 14.41,-75.43 43.23,-104.26 28.83,-28.52 63.17,-42.93 103.64,-42.93 40.79,0 75.44,14.41 104.26,42.93 28.83,28.83 43.23,63.47 43.23,104.26 0,40.17 -14.41,74.51 -43.23,103.64 -28.83,29.14 -63.48,43.54 -104.26,43.54 -40.48,0 -74.82,-14.41 -103.64,-43.54 -28.83,-29.13 -43.23,-63.47 -43.23,-103.64zm281.5 277.82l0 848.18 -266.78 0 0 -848.18 266.78 0zm765.09 0l0 182.14 -309.1 0 0 351.11c0,42.32 11.65,75.43 34.65,99.97 23,24.22 54.88,36.49 95.67,36.49 55.19,0 114.69,-16.55 178.77,-49.68l0 193.19c-84.94,35.57 -167.43,53.35 -247.15,53.35 -104.26,0 -184.9,-26.98 -242.55,-81.26 -57.34,-53.97 -86.16,-133.39 -86.16,-237.95l0 -365.21 -121.43 0 0 -52.13 355.09 -396.79 33.12 0 0 266.78 309.1 0zm341.62 0l0 242.55 3.68 0c77.27,-173.87 167.43,-260.96 270.46,-260.96 49.06,0 107.94,25.76 176.93,76.97l-73.9 235.81c-65.62,-41.7 -118.36,-62.55 -157.92,-62.55 -61.64,0 -113.76,38.33 -155.78,114.99 -42.32,76.36 -63.47,121.13 -63.47,133.7l0 367.67 -266.78 0 0 -848.18 266.78 0zm1065.3 848.18l0 -121.43c-78.5,93.22 -169.88,139.83 -274.14,139.83 -92.3,0 -167.12,-28.51 -224.77,-85.55 -57.35,-57.04 -86.17,-136.15 -86.17,-237.04l0 -543.99 266.78 0 0 525.89c0,108.24 44.77,162.22 134.61,162.22 50.9,0 94.14,-19.63 130.02,-58.88 35.87,-39.56 53.66,-68.38 53.66,-87.09l0 -542.14 266.78 0 0 848.18 -266.78 0zm1000.59 -803.71l0 189.2c-101.81,-61.33 -195.95,-91.99 -283.04,-91.99 -64.09,0 -95.97,22.08 -95.97,66.23 0,11.66 6.75,23 19.93,34.04 13.19,11.35 64.71,34.65 154.86,69.91 90.15,35.57 153.63,76.66 190.73,123.58 37.1,46.92 55.81,98.13 55.81,154.24 0,88.32 -30.05,156.69 -89.85,204.84 -59.8,48.15 -145.35,72.06 -256.05,72.06 -113.77,0 -214.96,-20.85 -303.58,-62.24l0 -187.97c108.86,47.83 200.24,71.76 273.83,71.76 86.16,0 129.1,-20.85 129.1,-62.86 0,-16.25 -7.97,-31.28 -23.92,-45.69 -15.95,-14.42 -69.3,-39.56 -160.38,-75.13 -90.77,-35.87 -153.01,-75.13 -186.75,-117.75 -33.43,-42.63 -50.29,-90.16 -50.29,-142.59 0,-77.58 32.2,-140.75 96.59,-189.5 64.4,-48.75 149.34,-72.98 254.82,-72.98 101.19,0 192.57,20.86 274.14,62.86z"/>
 </g>
</svg>
