<?xml version="1.0" encoding="UTF-8"?>
<!DOCTYPE svg PUBLIC "-//W3C//DTD SVG 1.1//EN" "http://www.w3.org/Graphics/SVG/1.1/DTD/svg11.dtd">
<!-- Creator: CorelDRAW (OEM Sürümü) -->
<svg xmlns="http://www.w3.org/2000/svg" xml:space="preserve" width="58.8392mm" height="60.83mm" version="1.1" style="shape-rendering:geometricPrecision; text-rendering:geometricPrecision; image-rendering:optimizeQuality; fill-rule:evenodd; clip-rule:evenodd"
viewBox="0 0 735.6 760.49"
 xmlns:xlink="http://www.w3.org/1999/xlink"
 xmlns:xodm="http://www.corel.com/coreldraw/odm/2003">
 <defs>
  <style type="text/css">
   <![CDATA[
    .fil2 {fill:#0B9301}
    .fil1 {fill:#F67E11}
    .fil0 {fill:#FE4800}
    .fil3 {fill:#FEFEFE;fill-rule:nonzero}
   ]]>
  </style>
 </defs>
 <g id="Katman_x0020_1">
  <metadata id="CorelCorpID_0Corel-Layer"/>
  <g id="_2527706500464">
   <g>
    <path class="fil0" d="M93.72 584.11c6.87,-50.24 3.3,-69.59 23.81,-116.03 14.33,-32.45 32.27,-57.48 55.92,-81.53 109.62,-111.5 291.66,-106.29 390.35,0.69 53.15,57.61 69.13,95.92 78.1,196.95l93.27 -0c6.18,-110.36 -57.2,-210.48 -107.5,-260.84 -143.48,-143.67 -383.94,-140.44 -520.8,2.01 -59.73,62.17 -114.36,166.54 -106.04,258.73l92.88 0.04z"/>
    <path class="fil1" d="M619.59 560.5c6.5,-21.33 -3.26,-53.65 -11.27,-72.09 -11.03,-25.4 -25.37,-36.96 -59.09,-25.32 -40.94,14.13 -81.16,43.69 -110.25,65.03 -14.56,10.68 -50.8,31.37 -36.53,44.48 7.74,7.11 61.14,12.06 75.58,13.52 43.11,4.36 129.03,15.49 141.56,-25.62z"/>
    <path class="fil1" d="M383.38 551.65c18.62,2.17 43.71,-28.12 53.13,-36.9 16.25,-15.13 29.62,-28.46 43.35,-45.61 33.92,-42.37 68.35,-77.68 16.19,-111.28 -59.88,-38.58 -89.08,-28.7 -104.97,33.3 -7.46,29.12 -20.64,137.99 -7.7,160.49z"/>
    <path class="fil1" d="M359.66 551.26c12.14,-23.3 -0.25,-129.77 -7.54,-159.62 -16.29,-66.69 -48.69,-69.44 -105.06,-33.92 -37.3,23.5 -33.89,47.53 -3.27,88.07 26.35,34.89 41.47,43.84 64.37,70.25 7.54,8.69 34.17,38.47 51.5,35.22z"/>
    <path class="fil1" d="M121.74 560.5c14.7,58.42 211.08,16.42 216.12,11.79 10.85,-9.99 -4.37,-20.77 -9.83,-24.75 -37.18,-27.06 -91.82,-69.7 -134.54,-83.92 -34.46,-11.47 -48.59,-3.5 -59.57,23.58 -7.69,18.97 -17.87,50.67 -12.17,73.3z"/>
   </g>
   <g>
    <path class="fil2" d="M203.72 45.15l16.35 46.62c4.57,16.5 8.73,33.41 15.4,49.14 4.71,11.11 14.21,34.79 25.31,45.88 17.5,17.48 40.48,10.36 49.38,-7.93 23.49,-48.28 -62.68,-148.16 -119.83,-178.86 -22.37,45.34 -29.06,76.32 -29.11,120.19 -0.14,126.65 76.15,116.26 78.03,78.04 1.73,-35.06 -39.01,-125.09 -35.52,-153.07z"/>
    <path class="fil2" d="M40.25 194.57c38.47,3.67 107.56,68 124.72,36.5 27.54,-50.58 -100.76,-80.4 -160.03,-53.66 3.36,27.92 58,104.44 102.78,112.88 29.36,5.53 44.89,-23.52 14.92,-47.68 -20.21,-16.3 -70.32,-34.36 -82.39,-48.04z"/>
    <path class="fil2" d="M425.46 54.99c-53.22,13.35 -130.56,103.95 -79.89,121.08 27.78,9.39 43.84,-68.36 71.62,-92.46 -10.6,27.26 -29.37,51.59 -37.13,79.89 -9.18,33.47 19.87,45.18 37.17,25.4 37.26,-42.62 19.21,-117.07 19.47,-135.62l-11.24 1.71z"/>
   </g>
  </g>
  <g id="_2527706498736">
   <g>
    <path class="fil3" d="M418.23 607.73l44.49 0 0 5.97 -21.6 0 0 41.22 -6.82 0 0 -41.22 -16.06 0 0 -5.97zm32.97 16.2l0 7.11 0.43 -0.57c2.98,-4.69 5.83,-6.54 8.81,-6.54 2.42,0 4.83,0.57 7.25,2.84l-3.13 5.4c-2.13,-1.99 -4.12,-2.99 -5.97,-2.99 -1.99,0 -3.69,1 -5.12,2.84 -1.56,1.85 -2.27,4.12 -2.27,6.68l0 16.2 -6.11 0 0 -30.98 6.11 0 0 0zm31.55 30.98l0 -3.84c-1.42,1.28 -2.84,2.42 -4.55,3.27 -1.71,0.71 -3.27,1.14 -4.97,1.14 -1.99,0 -3.84,-0.43 -5.4,-1.42 -1.71,-1 -2.99,-2.27 -3.84,-3.98 -0.85,-1.71 -1.28,-4.55 -1.28,-8.39l0 -17.77 6.25 0 0 17.77c0,3.13 0.43,5.54 1.42,6.82 0.85,1.28 2.56,1.85 4.83,1.85 2.99,0 5.4,-1.42 7.53,-4.26l0 -22.17 6.11 0 0 30.98 -6.11 0 0 0zm6.25 -30.98l0 3.98c2.7,-3.13 5.83,-3.98 9.38,-3.98 1.85,0 3.7,-0.14 5.26,0.85 1.71,1 2.99,2.42 3.84,4.12 0.85,1.71 1.28,4.55 1.28,8.24l0 17.77 -6.11 0 0 -17.62c0,-3.27 -0.43,-5.4 -1.42,-6.82 -1,-1.42 -2.56,-1.99 -4.83,-1.99 -2.98,0 -5.4,1.42 -7.39,4.26l0 22.17 -6.25 0 0 -30.98 6.25 0 0 0zm35.11 31.55l-0.14 0.57c1.28,0.28 2.13,0.85 2.84,1.71 0.71,0.85 1,1.85 1,2.84 0,1.71 -0.57,3.13 -1.99,4.41 -1.42,1.14 -3.55,1.71 -6.54,1.71 -0.85,0 -1.56,0 -2.27,-0.14l0 -3.84c1.14,0.14 1.85,0.14 2.13,0.14 1.28,0 2.27,-0.14 2.98,-0.71 0.43,-0.28 0.71,-0.71 0.71,-1.14 0,-0.57 -0.29,-1 -0.71,-1.28 -0.43,-0.43 -1.28,-0.57 -2.56,-0.57 -0.28,0 -0.43,0 -0.71,0l1.42 -4.12c-2.84,-0.57 -5.54,-2.13 -7.96,-4.55 -2.42,-2.42 -3.7,-6.11 -3.7,-10.94 0,-4.83 1.42,-8.81 4.26,-11.8 2.84,-2.99 6.54,-3.84 11.09,-3.84 4.12,0 4.97,-0.28 8.95,1.56l0 6.54c-3.13,-1.99 -5.97,-2.98 -8.67,-2.98 -2.7,0 -4.97,0.99 -6.82,2.84 -1.71,1.99 -2.56,4.55 -2.56,7.53 0,3.13 0.85,5.68 2.84,7.53 1.99,1.85 4.55,2.84 7.82,2.84 2.27,0 4.97,-0.71 8.1,-2.13l0 6.11c-3.13,1.14 -6.11,1.71 -9.1,1.71l-0.43 0 0 0z"/>
    <path class="fil3" d="M533.36 634.59c0,-3.27 1.28,-5.83 3.7,-7.82 2.42,-1.85 5.69,-2.84 9.81,-2.84l12.79 0 0 4.83 -6.25 0c1.28,1.14 2.13,2.27 2.56,3.27 0.43,1 0.71,2.27 0.71,3.55 0,1.56 -0.43,3.13 -1.42,4.69 -0.85,1.56 -2.13,2.84 -3.55,3.7 -1.42,0.71 -3.84,1.42 -7.11,1.99 -2.27,0.29 -3.41,1.14 -3.41,2.42 0,0.71 0.43,1.28 1.28,1.71 0.85,0.43 2.42,1 4.69,1.42 3.84,0.85 6.25,1.56 7.25,1.99 1.14,0.43 2.13,1.14 2.98,1.99 1.56,1.56 2.27,3.41 2.27,5.68 0,2.84 -1.28,5.26 -3.98,6.96 -2.56,1.85 -6.11,2.7 -10.52,2.7 -4.41,0 -7.96,-1 -10.52,-2.7 -2.7,-1.71 -3.98,-4.12 -3.98,-7.11 0,-4.26 2.56,-6.96 7.82,-8.1 -2.13,-1.42 -3.13,-2.7 -3.13,-3.98 0,-1 0.43,-1.85 1.28,-2.7 0.85,-0.85 2.13,-1.42 3.55,-1.85 -4.55,-1.99 -6.82,-5.26 -6.82,-9.81l-0 0zm11.51 -5.4c-1.56,0 -2.98,0.57 -4.26,1.71 -1.14,1.14 -1.71,2.56 -1.71,4.12 0,1.56 0.57,2.84 1.71,3.98 1.14,0.99 2.7,1.56 4.41,1.56 1.71,0 0.14,-0.57 1.28,-1.71 1.14,-1 1.71,-2.42 1.71,-3.98 0,-1.56 -0.57,-2.99 -1.71,-3.98 -1.28,-1.14 0.43,-1.71 -1.42,-1.71l0 0zm-1.42 27.29c-1.99,0 -3.7,0.43 -5.12,1.28 -1.28,0.85 -1.85,1.99 -1.85,3.41 0,3.13 2.84,4.69 8.53,4.69 2.7,0 4.83,-0.43 6.39,-1.14 1.42,-0.85 2.27,-1.99 2.27,-3.41 0,-1.42 -0.99,-2.56 -2.84,-3.55 -1.99,-0.85 -4.41,-1.28 -7.39,-1.28zm18.48 -45.62c1.14,0 1.99,0.28 2.7,1 0.71,0.71 1,1.56 1,2.56 0,1 -0.29,1.85 -1,2.56 -0.71,0.71 -1.56,1.14 -2.7,1.14 -0.85,0 -1.71,-0.43 -2.42,-1.14 -0.71,-0.71 -1.14,-1.56 -1.14,-2.56 0,-0.85 0.43,-1.71 1.14,-2.42 0.71,-0.85 1.56,-1.14 2.42,-1.14zm-2.98 13.08l6.11 0 0 30.98 -6.11 0 0 -30.98zm9.52 -16.2l6.11 0 0 47.19 -6.11 0 0 -47.19z"/>
   </g>
   <path class="fil3" d="M201.19 731.11l0 22.67c-12.33,4.46 -23.65,6.71 -33.91,6.71 -17.63,0 -31.74,-4.75 -42.29,-14.25 -10.55,-9.5 -15.85,-22.05 -15.85,-37.72 0,-15.27 5.33,-27.89 15.99,-37.83 10.66,-9.9 24.23,-14.87 40.73,-14.87 10.63,0 21.91,2.18 33.8,6.56l0 23.47c-8.7,-4.5 -17.26,-6.75 -25.68,-6.75 -9.43,0 -16.98,2.65 -22.63,7.94 -5.66,5.29 -8.49,12.37 -8.49,21.22 0,8.92 2.76,16.14 8.27,21.62 5.55,5.48 12.8,8.2 21.8,8.2 6.64,0 16.07,-2.32 28.25,-6.96zm11.72 -105.98c0,-4.82 1.7,-8.92 5.11,-12.33 3.41,-3.37 7.47,-5.08 12.26,-5.08 4.82,0 8.92,1.7 12.33,5.08 3.41,3.41 5.11,7.51 5.11,12.33 0,4.75 -1.7,8.81 -5.11,12.26 -3.41,3.45 -7.51,5.15 -12.33,5.15 -4.79,0 -8.85,-1.7 -12.26,-5.15 -3.41,-3.44 -5.11,-7.51 -5.11,-12.26zm33.3 32.86l0 100.32 -31.55 0 0 -100.32 31.55 0zm90.49 0l0 21.54 -36.56 0 0 41.53c0,5.01 1.38,8.92 4.1,11.82 2.72,2.87 6.49,4.32 11.32,4.32 6.53,0 13.56,-1.96 21.14,-5.88l0 22.85c-10.05,4.21 -19.8,6.31 -29.23,6.31 -12.33,0 -21.87,-3.19 -28.69,-9.61 -6.78,-6.38 -10.19,-15.78 -10.19,-28.14l0 -43.2 -14.36 0 0 -6.17 42 -46.93 3.92 0 0 31.55 36.56 0zm40.41 0l0 28.69 0.44 0c9.14,-20.56 19.8,-30.86 31.99,-30.86 5.8,0 12.77,3.05 20.93,9.1l-8.74 27.89c-7.76,-4.93 -14,-7.4 -18.68,-7.4 -7.29,0 -13.45,4.53 -18.42,13.6 -5,9.03 -7.51,14.33 -7.51,15.81l0 43.49 -31.55 0 0 -100.32 31.55 0zm126 100.32l0 -14.36c-9.29,11.03 -20.09,16.54 -32.42,16.54 -10.92,0 -19.77,-3.37 -26.59,-10.12 -6.78,-6.75 -10.19,-16.1 -10.19,-28.04l0 -64.34 31.55 0 0 62.2c0,12.8 5.29,19.19 15.92,19.19 6.02,0 11.13,-2.32 15.38,-6.96 4.24,-4.68 6.35,-8.09 6.35,-10.3l0 -64.12 31.55 0 0 100.32 -31.55 0zm118.35 -95.06l0 22.38c-12.04,-7.25 -23.18,-10.88 -33.48,-10.88 -7.58,0 -11.35,2.61 -11.35,7.83 0,1.38 0.8,2.72 2.36,4.03 1.56,1.34 7.65,4.1 18.32,8.27 10.66,4.21 18.17,9.07 22.56,14.62 4.39,5.55 6.6,11.61 6.6,18.24 0,10.45 -3.56,18.53 -10.63,24.23 -7.07,5.69 -17.19,8.52 -30.28,8.52 -13.46,0 -25.43,-2.47 -35.91,-7.36l0 -22.23c12.88,5.66 23.68,8.49 32.39,8.49 10.19,0 15.27,-2.47 15.27,-7.43 0,-1.92 -0.94,-3.7 -2.83,-5.4 -1.89,-1.71 -8.2,-4.68 -18.97,-8.89 -10.74,-4.24 -18.1,-8.89 -22.09,-13.93 -3.95,-5.04 -5.95,-10.66 -5.95,-16.87 0,-9.18 3.81,-16.65 11.42,-22.41 7.62,-5.77 17.66,-8.63 30.14,-8.63 11.97,0 22.78,2.47 32.42,7.43z"/>
  </g>
 </g>
</svg>
