<?xml version="1.0" encoding="UTF-8"?>
<!DOCTYPE svg PUBLIC "-//W3C//DTD SVG 1.1//EN" "http://www.w3.org/Graphics/SVG/1.1/DTD/svg11.dtd">
<!-- Creator: CorelDRAW (OEM Sürümü) -->
<svg xmlns="http://www.w3.org/2000/svg" xml:space="preserve" width="145.278mm" height="39.2262mm" version="1.1" style="shape-rendering:geometricPrecision; text-rendering:geometricPrecision; image-rendering:optimizeQuality; fill-rule:evenodd; clip-rule:evenodd"
viewBox="0 0 16460.62 4444.51"
 xmlns:xlink="http://www.w3.org/1999/xlink"
 xmlns:xodm="http://www.corel.com/coreldraw/odm/2003">
 <defs>
  <style type="text/css">
   <![CDATA[
    .fil2 {fill:#0B9301}
    .fil1 {fill:#F67E11}
    .fil0 {fill:#FE4800}
    .fil5 {fill:black;fill-rule:nonzero}
    .fil3 {fill:#2B2A29;fill-rule:nonzero}
    .fil4 {fill:#434242;fill-rule:nonzero}
   ]]>
  </style>
 </defs>
 <g id="Katman_x0020_1">
  <metadata id="CorelCorpID_0Corel-Layer"/>
  <g id="_2527976135776">
   <g>
    <path class="fil0" d="M704.56 4391.11c51.63,-377.71 24.83,-523.13 179.04,-872.25 107.75,-243.93 242.56,-432.08 420.36,-612.92 824.08,-838.23 2192.55,-799 2934.5,5.21 399.57,433.1 519.72,721.06 587.14,1480.55l701.15 -0.02c46.49,-829.65 -430.01,-1582.32 -808.11,-1960.9 -1078.64,-1080.01 -2886.27,-1055.77 -3915.16,15.08 -449.04,467.35 -859.73,1251.96 -797.14,1944.98l698.22 0.27z"/>
    <path class="fil1" d="M4657.82 4213.57c48.87,-160.33 -24.5,-403.33 -84.7,-541.97 -82.92,-190.96 -190.74,-277.81 -444.23,-190.32 -307.76,106.23 -610.12,328.44 -828.83,488.9 -109.42,80.29 -381.85,235.83 -274.59,334.37 58.19,53.45 459.64,90.68 568.17,101.65 324.11,32.78 969.99,116.45 1064.19,-192.63z"/>
    <path class="fil1" d="M2882.11 4147.04c139.98,16.32 328.61,-211.43 399.44,-277.4 122.18,-113.78 222.65,-213.95 325.85,-342.86 254.98,-318.51 513.8,-583.98 121.73,-836.58 -450.17,-290.04 -669.64,-215.75 -789.11,250.36 -56.11,218.93 -155.13,1037.36 -57.92,1206.49z"/>
    <path class="fil1" d="M2703.78 4144.15c91.22,-175.15 -1.87,-975.54 -56.66,-1199.91 -122.44,-501.34 -366.02,-522.05 -789.8,-255.01 -280.42,176.7 -254.78,357.32 -24.6,662.08 198.08,262.3 311.75,329.6 483.94,528.08 56.7,65.35 256.87,289.19 387.13,264.76z"/>
    <path class="fil1" d="M915.2 4213.57c110.48,439.13 1586.83,123.46 1624.66,88.63 81.59,-75.12 -32.88,-156.16 -73.91,-186.02 -279.5,-203.4 -690.3,-523.98 -1011.41,-630.89 -259.01,-86.24 -365.31,-26.32 -447.86,177.25 -57.83,142.62 -134.29,380.9 -91.48,551.03z"/>
   </g>
   <g>
    <path class="fil2" d="M1531.46 339.43l122.95 350.46c34.39,124.01 65.64,251.17 115.74,369.41 35.4,83.51 106.79,261.56 190.23,344.91 131.52,131.37 304.32,77.91 371.22,-59.6 176.57,-362.97 -471.21,-1113.78 -900.84,-1344.61 -168.18,340.83 -218.49,573.73 -218.86,903.54 -1.05,952.1 572.44,873.96 586.57,586.62 12.97,-263.58 -293.24,-940.33 -267,-1150.73z"/>
    <path class="fil2" d="M302.59 1462.67c289.21,27.61 808.62,511.19 937.56,274.41 207.06,-380.24 -757.5,-604.41 -1203,-403.38 25.27,209.86 436.01,785.14 772.64,848.59 220.69,41.61 337.5,-176.8 112.21,-358.46 -151.93,-122.49 -528.67,-258.28 -619.4,-361.17z"/>
    <path class="fil2" d="M3198.41 413.37c-400.11,100.35 -981.52,781.46 -600.55,910.23 208.87,70.6 329.55,-513.88 538.4,-695.09 -79.69,204.91 -220.82,387.81 -279.16,600.58 -68.99,251.58 149.39,339.64 279.41,190.94 280.11,-320.39 144.42,-880.09 146.36,-1019.5l-84.46 12.84z"/>
   </g>
  </g>
  <g id="_2527976137168">
   <g>
    <path class="fil3" d="M12118.39 1258.81l927.69 0 0 124.49 -450.51 0 0 859.52 -142.27 0 0 -859.52 -334.92 0 0 -124.49zm687.61 337.89l0 148.19 8.89 -11.85c62.24,-97.82 121.52,-136.34 183.76,-136.34 50.39,0 100.77,11.85 151.16,59.28l-65.21 112.62c-44.45,-41.49 -85.95,-62.25 -124.48,-62.25 -41.49,0 -77.06,20.76 -106.7,59.28 -32.61,38.53 -47.43,85.95 -47.43,139.31l0 337.87 -127.45 0 0 -646.12 127.45 0 0 0zm657.98 646.12l0 -80.03c-29.64,26.68 -59.28,50.39 -94.85,68.18 -35.57,14.82 -68.16,23.71 -103.73,23.71 -41.49,0 -80.03,-8.89 -112.62,-29.64 -35.57,-20.75 -62.25,-47.43 -80.03,-83 -17.79,-35.57 -26.67,-94.84 -26.67,-174.86l0 -370.48 130.4 0 0 370.48c0,65.21 8.89,115.59 29.64,142.27 17.79,26.67 53.36,38.53 100.77,38.53 62.25,0 112.62,-29.64 157.09,-88.92l0 -462.36 127.45 0 0 646.12 -127.45 0 0 0zm130.41 -646.12l0 82.98c56.31,-65.21 121.52,-82.98 195.62,-82.98 38.52,0 77.06,-2.97 109.66,17.78 35.57,20.75 62.25,50.39 80.03,85.95 17.79,35.57 26.67,94.85 26.67,171.91l0 370.48 -127.45 0 0 -367.51c0,-68.18 -8.89,-112.64 -29.64,-142.27 -20.75,-29.64 -53.34,-41.5 -100.76,-41.5 -62.25,0 -112.64,29.64 -154.13,88.92l0 462.36 -130.41 0 0 -646.12 130.41 0 0 0zm732.08 657.98l-2.97 11.85c26.67,5.93 44.46,17.78 59.28,35.57 14.82,17.78 20.75,38.53 20.75,59.28 0,35.57 -11.86,65.21 -41.49,91.88 -29.64,23.71 -74.1,35.57 -136.34,35.57 -17.79,0 -32.61,0 -47.43,-2.97l0 -80.03c23.71,2.97 38.53,2.97 44.46,2.97 26.67,0 47.42,-2.97 62.24,-14.82 8.89,-5.93 14.82,-14.82 14.82,-23.71 0,-11.85 -5.93,-20.75 -14.82,-26.67 -8.88,-8.89 -26.67,-11.85 -53.34,-11.85 -5.93,0 -8.89,0 -14.82,0l29.64 -85.95c-59.28,-11.85 -115.59,-44.46 -165.98,-94.85 -50.39,-50.39 -77.06,-127.45 -77.06,-228.22 0,-100.77 29.64,-183.76 88.91,-246.01 59.28,-62.24 136.34,-80.02 231.19,-80.02 85.95,0 103.73,-5.94 186.73,32.6l0 136.34c-65.21,-41.49 -124.49,-62.24 -180.8,-62.24 -56.31,0 -103.73,20.75 -142.27,59.27 -35.57,41.5 -53.34,94.85 -53.34,157.09 0,65.21 17.78,118.56 59.27,157.09 41.5,38.53 94.85,59.28 163.02,59.28 47.42,0 103.73,-14.82 168.94,-44.46l0 127.45c-65.21,23.71 -127.45,35.57 -189.68,35.57l-8.89 0 0 0.01z"/>
    <path class="fil4" d="M14519.14 1818.99c0,-68.18 26.67,-121.52 77.06,-163.02 50.39,-38.52 118.55,-59.27 204.5,-59.27l266.75 0 0 100.76 -130.41 0c26.67,23.71 44.46,47.43 53.36,68.18 8.88,20.75 14.82,47.42 14.82,74.1 0,32.6 -8.89,65.2 -29.64,97.8 -17.79,32.6 -44.46,59.28 -74.1,77.06 -29.64,14.82 -80.03,29.64 -148.19,41.49 -47.43,5.94 -71.13,23.71 -71.13,50.39 0,14.82 8.89,26.68 26.67,35.57 17.79,8.89 50.39,20.75 97.8,29.64 80.03,17.79 130.41,32.61 151.16,41.49 23.71,8.89 44.46,23.71 62.25,41.5 32.6,32.6 47.42,71.13 47.42,118.55 0,59.28 -26.67,109.67 -82.98,145.23 -53.36,38.52 -127.46,56.31 -219.34,56.31 -91.88,0 -165.98,-20.75 -219.32,-56.31 -56.31,-35.57 -82.98,-85.95 -82.98,-148.2 0,-88.91 53.34,-145.22 163.01,-168.94 -44.46,-29.64 -65.21,-56.31 -65.21,-82.98 0,-20.75 8.89,-38.53 26.67,-56.31 17.79,-17.79 44.46,-29.64 74.1,-38.53 -94.85,-41.49 -142.27,-109.67 -142.27,-204.51l0 0.01zm240.07 -112.64c-32.6,0 -62.24,11.86 -88.92,35.57 -23.7,23.71 -35.57,53.36 -35.57,85.95 0,32.61 11.86,59.28 35.57,83 23.71,20.75 56.32,32.6 91.89,32.6 35.57,0 2.96,-11.85 26.67,-35.57 23.71,-20.75 35.57,-50.39 35.57,-82.98 0,-32.61 -11.85,-62.25 -35.57,-83 -26.67,-23.7 8.89,-35.57 -29.64,-35.57l0 0zm-29.64 569.07c-41.49,0 -77.06,8.88 -106.7,26.67 -26.67,17.78 -38.53,41.49 -38.53,71.13 0,65.21 59.28,97.8 177.83,97.8 56.32,0 100.77,-8.88 133.38,-23.7 29.64,-17.79 47.42,-41.5 47.42,-71.13 0,-29.64 -20.75,-53.36 -59.28,-74.1 -41.49,-17.79 -91.88,-26.67 -154.12,-26.67zm385.3 -951.41c23.71,0 41.49,5.93 56.31,20.75 14.82,14.82 20.75,32.6 20.75,53.34 0,20.76 -5.93,38.53 -20.75,53.36 -14.82,14.82 -32.6,23.71 -56.31,23.71 -17.78,0 -35.57,-8.89 -50.39,-23.71 -14.82,-14.82 -23.7,-32.6 -23.7,-53.36 0,-17.78 8.88,-35.57 23.7,-50.38 14.82,-17.79 32.61,-23.71 50.39,-23.71zm-62.24 272.68l127.45 0 0 646.12 -127.45 0 0 -646.12zm198.58 -337.89l127.45 0 0 984.01 -127.45 0 0 -984.01z"/>
   </g>
   <path class="fil5" d="M7592.33 3831.87l0 472.73c-257.17,93.02 -493.14,139.91 -707.18,139.91 -367.58,0 -661.81,-99.06 -881.91,-297.23 -220.09,-198.17 -330.51,-459.86 -330.51,-786.59 0,-318.41 111.17,-581.63 333.53,-788.86 222.36,-206.49 505.24,-310.1 849.38,-310.1 221.61,0 456.83,45.39 704.9,136.89l0 489.36c-181.51,-93.79 -360.01,-140.68 -535.49,-140.68 -196.65,0 -353.96,55.21 -471.95,165.64 -118,110.42 -176.99,257.9 -176.99,442.45 0,186.06 57.49,336.57 172.45,450.78 115.72,114.2 267,170.92 454.57,170.92 138.4,0 335.05,-48.39 589.2,-145.22zm244.33 -2210.02c0,-100.59 35.54,-186.06 106.64,-257.16 71.1,-70.34 155.81,-105.88 255.64,-105.88 100.6,0 186.07,35.54 257.17,105.88 71.1,71.1 106.64,156.56 106.64,257.16 0,99.08 -35.54,183.79 -106.64,255.64 -71.1,71.86 -156.56,107.4 -257.17,107.4 -99.83,0 -184.54,-35.54 -255.64,-107.4 -71.1,-71.85 -106.64,-156.55 -106.64,-255.64zm694.32 685.26l0 2092.03 -658.01 0 0 -2092.03 658.01 0zm1887.11 0l0 449.25 -762.38 0 0 866.02c0,104.38 28.73,186.05 85.48,246.56 56.72,59.76 135.37,90 235.97,90 136.14,0 282.88,-40.82 440.94,-122.53l0 476.5c-209.49,87.73 -412.95,131.59 -609.6,131.59 -257.16,0 -456.07,-66.56 -598.27,-200.42 -141.43,-133.11 -212.53,-329 -212.53,-586.92l0 -900.81 -299.51 0 0 -128.58 875.84 -978.69 81.68 0 0 658.02 762.38 0zm842.62 0l0 598.26 9.06 0c190.6,-428.85 412.96,-643.65 667.09,-643.65 121.02,0 266.24,63.54 436.4,189.84l-182.27 581.63c-161.84,-102.86 -291.94,-154.3 -389.52,-154.3 -152.02,0 -280.59,94.54 -384.22,283.62 -104.38,188.33 -156.55,298.77 -156.55,329.76l0 906.87 -658.03 0 0 -2092.03 658.03 0zm2627.57 2092.03l0 -299.52c-193.63,229.94 -419.01,344.89 -676.18,344.89 -227.65,0 -412.19,-70.33 -554.39,-211.01 -141.45,-140.68 -212.55,-335.82 -212.55,-584.65l0 -1341.74 658.03 0 0 1297.12c0,266.98 110.42,400.1 332.03,400.1 125.55,0 232.2,-48.42 320.7,-145.22 88.48,-97.57 132.36,-168.67 132.36,-214.8l0 -1337.2 658.01 0 0 2092.03 -658.01 0zm2467.97 -1982.38l0 466.67c-251.11,-151.26 -483.3,-226.9 -698.1,-226.9 -158.07,0 -236.73,54.47 -236.73,163.36 0,28.76 16.64,56.74 49.15,83.96 32.53,27.99 159.6,85.48 381.96,172.45 222.36,87.73 378.92,189.08 470.44,304.8 91.52,115.72 137.65,242.03 137.65,380.44 0,217.84 -74.12,386.48 -221.61,505.24 -147.49,118.75 -358.5,177.73 -631.54,177.73 -280.61,0 -530.2,-51.43 -748.77,-153.52l0 -463.64c268.5,117.98 493.88,176.98 675.41,176.98 212.53,0 318.42,-51.43 318.42,-155.06 0,-40.08 -19.67,-77.15 -59,-112.69 -39.34,-35.55 -170.93,-97.57 -395.57,-185.3 -223.88,-88.49 -377.41,-185.31 -460.62,-290.43 -82.44,-105.14 -124.03,-222.37 -124.03,-351.71 0,-191.35 79.42,-347.15 238.25,-467.42 158.83,-120.25 368.35,-180.01 628.52,-180.01 249.59,0 475,51.44 676.17,155.05z"/>
  </g>
 </g>
</svg>
