<?xml version="1.0" encoding="UTF-8"?>
<!DOCTYPE svg PUBLIC "-//W3C//DTD SVG 1.1//EN" "http://www.w3.org/Graphics/SVG/1.1/DTD/svg11.dtd">
<!-- Creator: CorelDRAW (OEM Sürümü) -->
<svg xmlns="http://www.w3.org/2000/svg" xml:space="preserve" width="46.5275mm" height="12.5628mm" version="1.1" style="shape-rendering:geometricPrecision; text-rendering:geometricPrecision; image-rendering:optimizeQuality; fill-rule:evenodd; clip-rule:evenodd"
viewBox="0 0 846.43 228.54"
 xmlns:xlink="http://www.w3.org/1999/xlink"
 xmlns:xodm="http://www.corel.com/coreldraw/odm/2003">
 <defs>
  <style type="text/css">
   <![CDATA[
    .fil2 {fill:#0B9301}
    .fil1 {fill:#F67E11}
    .fil0 {fill:#FE4800}
    .fil3 {fill:#FEFEFE;fill-rule:nonzero}
   ]]>
  </style>
 </defs>
 <g id="Katman_x0020_1">
  <metadata id="CorelCorpID_0Corel-Layer"/>
  <g id="_2527704917456">
   <g>
    <path class="fil0" d="M36.23 225.8c2.65,-19.42 1.28,-26.9 9.21,-44.85 5.54,-12.54 12.47,-22.22 21.62,-31.52 42.37,-43.1 112.74,-41.09 150.9,0.27 20.55,22.27 26.72,37.08 30.19,76.13l36.05 0c2.39,-42.66 -22.11,-81.37 -41.55,-100.83 -55.47,-55.53 -148.42,-54.29 -201.32,0.77 -23.09,24.03 -44.21,64.38 -40.99,100.01l35.9 0.01z"/>
    <path class="fil1" d="M239.51 216.67c2.51,-8.24 -1.26,-20.74 -4.36,-27.87 -4.26,-9.82 -9.81,-14.28 -22.84,-9.79 -15.83,5.46 -31.37,16.89 -42.62,25.14 -5.63,4.13 -19.63,12.13 -14.12,17.19 2.99,2.75 23.64,4.66 29.21,5.23 16.67,1.68 49.88,5.99 54.72,-9.91z"/>
    <path class="fil1" d="M148.2 213.25c7.2,0.84 16.9,-10.87 20.54,-14.26 6.28,-5.85 11.45,-11 16.76,-17.63 13.11,-16.38 26.42,-30.03 6.26,-43.02 -23.15,-14.91 -34.43,-11.1 -40.58,12.87 -2.89,11.26 -7.98,53.34 -2.98,62.04z"/>
    <path class="fil1" d="M139.03 213.1c4.69,-9.01 -0.1,-50.16 -2.91,-61.7 -6.3,-25.78 -18.82,-26.84 -40.61,-13.11 -14.42,9.09 -13.1,18.37 -1.27,34.04 10.19,13.49 16.03,16.95 24.88,27.16 2.92,3.36 13.21,14.87 19.91,13.61z"/>
    <path class="fil1" d="M47.06 216.67c5.68,22.58 81.6,6.35 83.54,4.56 4.2,-3.86 -1.69,-8.03 -3.8,-9.57 -14.37,-10.46 -35.49,-26.94 -52.01,-32.44 -13.32,-4.44 -18.79,-1.35 -23.03,9.11 -2.97,7.33 -6.91,19.59 -4.7,28.34z"/>
   </g>
   <g>
    <path class="fil2" d="M78.75 17.45l6.32 18.02c1.77,6.38 3.37,12.91 5.95,18.99 1.82,4.29 5.49,13.45 9.78,17.74 6.76,6.75 15.65,4.01 19.09,-3.06 9.08,-18.67 -24.23,-57.27 -46.32,-69.14 -8.65,17.53 -11.24,29.5 -11.26,46.46 -0.05,48.96 29.44,44.94 30.16,30.17 0.67,-13.55 -15.08,-48.35 -13.73,-59.17z"/>
    <path class="fil2" d="M15.56 75.21c14.87,1.42 41.58,26.29 48.21,14.11 10.65,-19.55 -38.95,-31.08 -61.86,-20.74 1.3,10.79 22.42,40.37 39.73,43.64 11.35,2.14 17.35,-9.09 5.77,-18.43 -7.81,-6.3 -27.18,-13.28 -31.85,-18.57z"/>
    <path class="fil2" d="M164.47 21.26c-20.58,5.16 -50.47,40.18 -30.88,46.81 10.74,3.63 16.95,-26.43 27.68,-35.74 -4.1,10.54 -11.35,19.94 -14.35,30.88 -3.55,12.94 7.68,17.46 14.37,9.82 14.4,-16.48 7.43,-45.26 7.53,-52.43l-4.34 0.66z"/>
   </g>
  </g>
  <g id="_2527704946352">
   <g>
    <path class="fil3" d="M623.15 64.73l47.7 0 0 6.4 -23.17 0 0 44.2 -7.32 0 0 -44.2 -17.22 0 0 -6.4zm35.36 17.37l0 7.62 0.46 -0.61c3.2,-5.03 6.25,-7.01 9.45,-7.01 2.59,0 5.18,0.61 7.77,3.05l-3.35 5.79c-2.29,-2.13 -4.42,-3.2 -6.4,-3.2 -2.13,0 -3.96,1.07 -5.49,3.05 -1.68,1.98 -2.44,4.42 -2.44,7.16l0 17.38 -6.55 0 0 -33.23 6.55 0 0 0zm33.83 33.22l0 -4.12c-1.52,1.37 -3.05,2.59 -4.88,3.51 -1.83,0.76 -3.5,1.22 -5.33,1.22 -2.13,0 -4.12,-0.46 -5.79,-1.52 -1.83,-1.07 -3.2,-2.44 -4.12,-4.27 -0.92,-1.83 -1.37,-4.88 -1.37,-8.99l0 -19.05 6.71 0 0 19.05c0,3.35 0.46,5.95 1.52,7.32 0.91,1.37 2.74,1.98 5.18,1.98 3.2,0 5.79,-1.52 8.08,-4.57l0 -23.78 6.55 0 0 33.23 -6.55 0 0 -0zm6.71 -33.22l0 4.27c2.89,-3.35 6.25,-4.27 10.06,-4.27 1.98,0 3.96,-0.15 5.64,0.92 1.83,1.07 3.2,2.59 4.12,4.42 0.91,1.83 1.37,4.88 1.37,8.84l0 19.05 -6.55 0 0 -18.9c0,-3.51 -0.46,-5.79 -1.52,-7.32 -1.07,-1.52 -2.74,-2.13 -5.18,-2.13 -3.2,0 -5.79,1.52 -7.92,4.57l0 23.78 -6.71 0 0 -33.22 6.71 0 0 0zm37.64 33.84l-0.15 0.61c1.37,0.3 2.28,0.91 3.05,1.83 0.76,0.92 1.07,1.98 1.07,3.05 0,1.83 -0.61,3.35 -2.13,4.72 -1.52,1.22 -3.81,1.83 -7.01,1.83 -0.92,0 -1.68,0 -2.44,-0.15l0 -4.12c1.22,0.15 1.98,0.15 2.28,0.15 1.37,0 2.44,-0.15 3.2,-0.76 0.46,-0.3 0.76,-0.76 0.76,-1.22 0,-0.61 -0.3,-1.07 -0.76,-1.37 -0.46,-0.46 -1.37,-0.61 -2.74,-0.61 -0.31,0 -0.46,0 -0.76,0l1.52 -4.42c-3.05,-0.61 -5.95,-2.28 -8.54,-4.88 -2.59,-2.59 -3.96,-6.55 -3.96,-11.73 0,-5.18 1.52,-9.45 4.57,-12.65 3.05,-3.2 7.01,-4.12 11.89,-4.12 4.42,0 5.33,-0.3 9.6,1.68l0 7.01c-3.35,-2.13 -6.4,-3.2 -9.3,-3.2 -2.9,0 -5.33,1.07 -7.32,3.05 -1.83,2.13 -2.74,4.88 -2.74,8.08 0,3.35 0.92,6.1 3.05,8.08 2.13,1.98 4.88,3.05 8.38,3.05 2.44,0 5.33,-0.76 8.69,-2.28l0 6.55c-3.35,1.22 -6.55,1.83 -9.75,1.83l-0.46 0 0 0z"/>
    <path class="fil3" d="M746.6 93.53c0,-3.5 1.37,-6.25 3.96,-8.38 2.59,-1.98 6.1,-3.05 10.52,-3.05l13.72 0 0 5.18 -6.71 0c1.37,1.22 2.29,2.44 2.74,3.5 0.46,1.07 0.76,2.44 0.76,3.81 0,1.68 -0.46,3.35 -1.52,5.03 -0.92,1.68 -2.29,3.05 -3.81,3.96 -1.52,0.76 -4.12,1.52 -7.62,2.13 -2.44,0.3 -3.66,1.22 -3.66,2.59 0,0.76 0.46,1.37 1.37,1.83 0.91,0.46 2.59,1.07 5.03,1.52 4.12,0.91 6.71,1.68 7.77,2.13 1.22,0.46 2.29,1.22 3.2,2.13 1.68,1.68 2.44,3.66 2.44,6.1 0,3.05 -1.37,5.64 -4.27,7.47 -2.74,1.98 -6.55,2.9 -11.28,2.9 -4.72,0 -8.53,-1.07 -11.28,-2.9 -2.9,-1.83 -4.27,-4.42 -4.27,-7.62 0,-4.57 2.74,-7.47 8.38,-8.69 -2.29,-1.52 -3.35,-2.9 -3.35,-4.27 0,-1.07 0.46,-1.98 1.37,-2.9 0.92,-0.92 2.29,-1.52 3.81,-1.98 -4.88,-2.13 -7.32,-5.64 -7.32,-10.52l0 0zm12.35 -5.79c-1.68,0 -3.2,0.61 -4.57,1.83 -1.22,1.22 -1.83,2.74 -1.83,4.42 0,1.68 0.61,3.05 1.83,4.27 1.22,1.07 2.89,1.68 4.72,1.68 1.83,0 0.15,-0.61 1.37,-1.83 1.22,-1.07 1.83,-2.59 1.83,-4.27 0,-1.68 -0.61,-3.2 -1.83,-4.27 -1.37,-1.22 0.46,-1.83 -1.52,-1.83l0 0zm-1.52 29.26c-2.13,0 -3.96,0.46 -5.49,1.37 -1.37,0.92 -1.98,2.13 -1.98,3.66 0,3.35 3.05,5.03 9.15,5.03 2.89,0 5.18,-0.46 6.86,-1.22 1.52,-0.92 2.44,-2.13 2.44,-3.66 0,-1.52 -1.07,-2.74 -3.05,-3.81 -2.13,-0.92 -4.72,-1.37 -7.92,-1.37zm19.81 -48.92c1.22,0 2.13,0.3 2.9,1.07 0.76,0.76 1.07,1.68 1.07,2.74 0,1.07 -0.3,1.98 -1.07,2.74 -0.76,0.76 -1.68,1.22 -2.9,1.22 -0.92,0 -1.83,-0.46 -2.59,-1.22 -0.76,-0.76 -1.22,-1.68 -1.22,-2.74 0,-0.92 0.46,-1.83 1.22,-2.59 0.76,-0.92 1.68,-1.22 2.59,-1.22zm-3.2 14.02l6.55 0 0 33.23 -6.55 0 0 -33.23zm10.21 -17.37l6.55 0 0 50.6 -6.55 0 0 -50.6z"/>
   </g>
   <path class="fil3" d="M390.41 197.04l0 24.31c-13.22,4.78 -25.36,7.19 -36.36,7.19 -18.9,0 -34.03,-5.09 -45.35,-15.28 -11.32,-10.19 -17,-23.65 -17,-40.45 0,-16.37 5.72,-29.91 17.15,-40.56 11.43,-10.62 25.98,-15.95 43.68,-15.95 11.4,0 23.49,2.33 36.25,7.04l0 25.16c-9.33,-4.82 -18.51,-7.23 -27.54,-7.23 -10.11,0 -18.2,2.84 -24.27,8.52 -6.07,5.68 -9.1,13.26 -9.1,22.75 0,9.57 2.96,17.31 8.87,23.18 5.95,5.87 13.73,8.79 23.37,8.79 7.12,0 17.23,-2.49 30.3,-7.47zm12.57 -113.64c0,-5.17 1.83,-9.57 5.48,-13.22 3.65,-3.62 8.01,-5.44 13.15,-5.44 5.17,0 9.57,1.83 13.22,5.44 3.65,3.65 5.48,8.05 5.48,13.22 0,5.1 -1.83,9.45 -5.48,13.15 -3.66,3.69 -8.05,5.52 -13.22,5.52 -5.13,0 -9.49,-1.83 -13.15,-5.52 -3.66,-3.69 -5.48,-8.05 -5.48,-13.15zm35.7 35.24l0 107.58 -33.84 0 0 -107.58 33.84 0zm97.04 0l0 23.1 -39.2 0 0 44.53c0,5.37 1.48,9.57 4.4,12.68 2.92,3.07 6.96,4.63 12.13,4.63 7,0 14.54,-2.1 22.67,-6.3l0 24.5c-10.77,4.51 -21.23,6.77 -31.35,6.77 -13.22,0 -23.45,-3.42 -30.76,-10.31 -7.27,-6.84 -10.93,-16.92 -10.93,-30.18l0 -46.32 -15.4 0 0 -6.61 45.04 -50.33 4.2 0 0 33.84 39.2 0zm43.33 0l0 30.76 0.47 0c9.8,-22.05 21.23,-33.1 34.3,-33.1 6.22,0 13.69,3.27 22.44,9.76l-9.37 29.91c-8.32,-5.29 -15.01,-7.93 -20.03,-7.93 -7.82,0 -14.43,4.86 -19.76,14.58 -5.37,9.68 -8.05,15.36 -8.05,16.96l0 46.63 -33.84 0 0 -107.58 33.84 0zm135.11 107.58l0 -15.4c-9.96,11.82 -21.55,17.73 -34.77,17.73 -11.7,0 -21.2,-3.62 -28.51,-10.85 -7.27,-7.23 -10.93,-17.27 -10.93,-30.06l0 -69 33.84 0 0 66.7c0,13.73 5.68,20.57 17.07,20.57 6.46,0 11.94,-2.49 16.49,-7.47 4.55,-5.02 6.81,-8.67 6.81,-11.04l0 -68.76 33.84 0 0 107.58 -33.84 0zm126.91 -101.94l0 24c-12.91,-7.78 -24.85,-11.67 -35.9,-11.67 -8.13,0 -12.17,2.8 -12.17,8.4 0,1.48 0.86,2.92 2.53,4.32 1.67,1.44 8.21,4.4 19.64,8.87 11.43,4.51 19.48,9.72 24.19,15.67 4.71,5.95 7.08,12.45 7.08,19.56 0,11.2 -3.81,19.87 -11.4,25.98 -7.58,6.11 -18.43,9.14 -32.47,9.14 -14.43,0 -27.26,-2.64 -38.5,-7.89l0 -23.84c13.81,6.07 25.4,9.1 34.73,9.1 10.93,0 16.37,-2.64 16.37,-7.97 0,-2.06 -1.01,-3.97 -3.03,-5.8 -2.02,-1.83 -8.79,-5.02 -20.34,-9.53 -11.51,-4.55 -19.41,-9.53 -23.69,-14.93 -4.24,-5.41 -6.38,-11.44 -6.38,-18.08 0,-9.84 4.08,-17.85 12.25,-24.04 8.17,-6.18 18.94,-9.26 32.32,-9.26 12.83,0 24.42,2.65 34.77,7.97z"/>
  </g>
 </g>
</svg>
